# xmcd CD database file
#
# Track frame offsets:
#	150
#	12991
#	32419
#	47801
#	61596
#	71894
#	84298
#	95321
#	112082
#	121071
#	140567
#	151709
#	174438
#	188709
#	203666
#	216337
#	228077
#
# Disc length: 3233 seconds
#
# Revision: 3
# Processed by: cddbd v1.4PL0 Copyright (c) Steve Scherf et al.
# Submitted via: CDex 1.40Release
#
DISCID=d70c9f11
DTITLE=Tony Rice - Sings Gordon Lightfoot
DYEAR=1996
DGENRE=Acoustic
TTITLE0=Go My Way
TTITLE1=home from the forest
TTITLE2=fine as fine can be
TTITLE3=let it ride
TTITLE4=I'm not sayin'
TTITLE5=bitter green
TTITLE6=you are what i am
TTITLE7=shadows
TTITLE8=walls
TTITLE9=wispers of the north
TTITLE10=ten degrees (getting colder)
TTITLE11=Wreck of edmund fitzgerald
TTITLE12=early morning rain
TTITLE13=whisper my name
TTITLE14=sixteen miles
TTITLE15=cold on the shoulder
TTITLE16=song for a winters night
EXTD=YEAR: 1996 ID3G: 99
EXTT0=
EXTT1=
EXTT2=
EXTT3=
EXTT4=
EXTT5=
EXTT6=
EXTT7=
EXTT8=
EXTT9=
EXTT10=
EXTT11=
EXTT12=
EXTT13=
EXTT14=
EXTT15=
EXTT16=
PLAYORDER=
